#!OML:ASF I:\Actors\actors\Patient Classification 1\Patient 1\Session 1\Subject1.ASF
:FULLY-SPECIFIED
:DEGREES
540
root 0.572589 17.575 8.80046 14.3355 -43.7717 -8.3077
lowerback -0.202745 -7.09956 2.11036
upperback -9.25998 -9.37123 4.11432
thorax -9.32002 -4.67216 3.93443
lowerneck -10.0499 -6.86754 -6.69208
upperneck 24.7302 -10.2001 5.21443
head 10.1374 -4.96577 1.69231
rclavicle -4.0403e-014 -2.70347e-014
rhumerus -1.15258 29.7598 -91.8856
rradius 135.343
rwrist 22.124
rhand 49.4264 -59.1988
rfingers 7.12502
rthumb 69.5717 -56.2535
lclavicle -4.0403e-014 -2.70347e-014
lhumerus -17.5432 -29.3374 103.692
lradius 136.432
lwrist -13.8276
lhand 58.3734 7.54118
lfingers 7.12502
lthumb 74.1685 -19.2581
rfemur -19.2681 32.3239 14.7407
rtibia 10.3042
rfoot -7.60099 5.54406
rtoes -9.43138
lfemur 11.0317 -30.1941 -25.7645
ltibia -4.85992
lfoot -76.9096 59.3455
ltoes 43.7765
541
root 0.558796 17.5751 8.7771 14.1142 -42.2818 -8.16439
lowerback -0.210283 -6.90943 2.12891
upperback -9.23693 -9.10752 4.10069
thorax -9.30468 -4.5417 3.88711
lowerneck -9.82557 -6.75665 -6.75012
upperneck 24.5273 -10.0747 5.45554
head 10.029 -4.88873 1.81313
rclavicle -9.97899e-014 -1.15295e-014
rhumerus -1.02147 29.6453 -91.8533
rradius 135.247
rwrist 21.7019
rhand 49.7241 -59.165
rfingers 7.12502
rthumb 69.77 -55.62
lclavicle -9.97899e-014 -1.15295e-014
lhumerus -17.3981 -29.0686 103.46
lradius 136.402
lwrist -13.3661
lhand 59.3202 7.8598
lfingers 7.12502
lthumb 74.4388 -22.1689
rfemur -18.8363 31.967 14.9441
rtibia 10.2019
rfoot -7.76121 4.47862
rtoes -9.3759
lfemur 11.1375 -31.4176 -25.6513
ltibia -4.84362
lfoot -76.6254 59.6373
ltoes 43.5145
542
root 0.544822 17.5749 8.75175 13.9438 -40.7048 -8.10137
lowerback -0.205907 -6.62042 2.28258
upperback -9.22317 -8.70671 4.02149
thorax -9.34321 -4.35529 3.69354
lowerneck -9.88715 -6.73304 -6.36992
upperneck 24.4956 -10.0177 5.18295
head 9.98831 -4.84893 1.6635
rclavicle 5.52621e-014 4.57205e-015
rhumerus -0.998013 29.4611 -91.8744
rradius 135.15
rwrist 21.3612
rhand 49.8278 -59.1677
rfingers 7.12502
rthumb 69.8385 -55.4112
lclavicle 5.52621e-014 4.57205e-015
lhumerus -17.3996 -28.9544 103.37
lradius 136.406
lwrist -13.1266
lhand 60.2085 8.73452
lfingers 7.12502
lthumb 74.6449 -24.4192
rfemur -18.438 31.614 15.2301
rtibia 10.2024
rfoot -7.97666 3.33696
rtoes -9.52224
lfemur 11.1748 -32.4639 -25.3626
ltibia -4.83219
lfoot -75.8634 59.7778
ltoes 43.3057
543
root 0.530984 17.5748 8.72725 13.7364 -39.0443 -8.06123
lowerback -0.214371 -6.32442 2.50659
upperback -9.18505 -8.29366 3.93042
thorax -9.35668 -4.16902 3.44369
lowerneck -10.087 -6.63989 -5.70206
upperneck 24.5145 -9.81287 4.53386
head 9.94639 -4.75058 1.35124
rclavicle 1.42081e-013 3.51849e-014
rhumerus -0.872761 29.5121 -91.8582
rradius 134.894
rwrist 21.4911
rhand 49.5219 -59.0208
rfingers 7.12502
rthumb 69.6356 -55.8844
lclavicle 1.42081e-013 3.51849e-014
lhumerus -17.4581 -28.8678 103.299
lradius 136.497
lwrist -13.2441
lhand 60.4809 9.73313
lfingers 7.12502
lthumb 74.6986 -24.3951
rfemur -17.9391 31.3223 15.581
rtibia 10.1853
rfoot -8.22822 2.04593
rtoes -9.82267
lfemur 11.2486 -33.3587 -25.0293
ltibia -4.85478
lfoot -74.4929 59.9904
ltoes 42.778
544
root 0.516093 17.5739 8.70553 13.4277 -37.2818 -7.87885
lowerback -0.268943 -6.06426 2.66618
upperback -9.13952 -7.93504 3.82453
thorax -9.32177 -4.0062 3.20827
lowerneck -10.254 -6.40797 -5.22031
upperneck 24.528 -9.45212 4.16697
head 9.91587 -4.5681 1.18811
rclavicle 1.3418e-014 8.74653e-015
rhumerus -0.64178 29.6857 -91.8637
rradius 134.617
rwrist 21.5422
rhand 49.1523 -58.5767
rfingers 7.12502
rthumb 69.3872 -56.1727
lclavicle 1.3418e-014 8.74653e-015
lhumerus -17.3637 -28.7175 103.139
lradius 136.651
lwrist -13.2747
lhand 60.2493 10.6206
lfingers 7.12502
lthumb 74.6532 -22.6786
rfemur -17.3517 30.894 15.8335
rtibia 10.0783
rfoot -8.45721 0.761053
rtoes -9.91742
lfemur 11.3989 -34.4654 -24.8967
ltibia -4.88572
lfoot -73.397 60.1397
ltoes 42.2726
545
root 0.499341 17.5727 8.68476 13.0607 -35.3948 -7.61557
lowerback -0.299531 -5.86577 2.77387
upperback -9.11823 -7.65821 3.76646
thorax -9.30943 -3.87734 3.06232
lowerneck -10.514 -6.05168 -4.94205
upperneck 24.6437 -8.92336 3.97106
head 9.9538 -4.30524 1.13383
rclavicle -4.07012e-014 1.66979e-014
rhumerus -0.41046 30.0647 -91.8296
rradius 134.396
rwrist 21.441
rhand 48.877 -58.1986
rfingers 7.12502
rthumb 69.1999 -56.3284
lclavicle -4.07012e-014 1.66979e-014
lhumerus -17.2594 -28.3218 102.985
lradius 136.771
lwrist -13.3593
lhand 59.7479 10.9298
lfingers 7.12502
lthumb 74.544 -20.5932
rfemur -16.7057 30.3909 16.0338
rtibia 9.94779
rfoot -8.65529 -0.551901
rtoes -10.0188
lfemur 11.6752 -35.9729 -24.9684
ltibia -4.92018
lfoot -73.0093 60.2141
ltoes 41.9418
546
root 0.478935 17.5738 8.66434 12.6122 -33.4116 -7.25132
lowerback -0.290752 -5.64902 2.71592
upperback -9.13946 -7.36385 3.68864
thorax -9.34625 -3.72732 2.99159
lowerneck -10.7571 -5.61092 -4.77754
upperneck 24.8947 -8.33127 4.02451
head 10.0541 -3.99711 1.19238
rclavicle -5.60076e-014 9.14409e-015
rhumerus -0.315344 30.4252 -91.7168
rradius 134.124
rwrist 21.7179
rhand 48.7171 -57.5683
rfingers 7.12502
rthumb 69.0902 -56.0037
lclavicle -5.60076e-014 9.14409e-015
lhumerus -17.3112 -27.9742 102.938
lradius 136.891
lwrist -13.4381
lhand 59.3722 11.307
lfingers 7.12502
lthumb 74.4522 -18.9024
rfemur -15.9773 29.9432 16.1445
rtibia 9.74123
rfoot -8.79076 -2.0036
rtoes -10.1271
lfemur 11.9668 -37.4887 -25.1292
ltibia -4.95451
lfoot -72.2611 60.4381
ltoes 41.4514
547
root 0.456082 17.5769 8.64632 12.1448 -31.3734 -6.91421
lowerback -0.270009 -5.24878 2.68271
upperback -9.13625 -6.83258 3.40747
thorax -9.39512 -3.47041 2.67425
lowerneck -10.894 -5.23478 -4.13751
upperneck 25.0453 -7.90766 3.99422
head 10.0823 -3.73461 1.12665
rclavicle -2.0122e-013 -7.27552e-014
rhumerus -0.295116 30.1958 -91.585
rradius 133.959
rwrist 22.0986
rhand 48.752 -57.1278
rfingers 7.12502
rthumb 69.1143 -55.4968
lclavicle -2.0122e-013 -7.27552e-014
lhumerus -17.4461 -28.1739 102.948
lradius 136.929
lwrist -13.3553
lhand 59.7027 11.5184
lfingers 7.12502
lthumb 74.5333 -19.8454
rfemur -15.1686 29.5237 16.2868
rtibia 9.48285
rfoot -8.87372 -3.52394
rtoes -10.0452
lfemur 12.211 -38.8229 -25.2191
ltibia -4.95134
lfoot -71.0369 60.6604
ltoes 40.9246
548
root 0.436582 17.5788 8.63121 11.7495 -29.2243 -6.77954
lowerback -0.261049 -4.7507 2.97895
upperback -9.07381 -6.16182 3.00699
thorax -9.41962 -3.17561 2.03496
lowerneck -11.1249 -4.92629 -2.98258
upperneck 25.1149 -7.58069 3.58379
head 10.0693 -3.50798 0.828338
rclavicle -6.42571e-014 -4.87022e-015
rhumerus -0.230078 29.7357 -91.4745
rradius 133.997
rwrist 22.2532
rhand 48.456 -57.4214
rfingers 7.12502
rthumb 68.91 -56.3487
lclavicle -6.42571e-014 -4.87022e-015
lhumerus -17.5762 -28.7183 102.913
lradius 136.901
lwrist -13.3067
lhand 59.9937 11.0315
lfingers 7.12502
lthumb 74.5994 -21.3589
rfemur -14.2528 28.9948 16.6618
rtibia 9.20046
rfoot -8.96173 -5.0179
rtoes -9.78835
lfemur 12.4917 -40.2209 -25.1831
ltibia -4.90703
lfoot -69.8477 60.9098
ltoes 40.2069
549
root 0.419009 17.5799 8.61523 11.4286 -26.9947 -6.68999
lowerback -0.240877 -4.36528 3.27357
upperback -9.08779 -5.6324 2.77062
thorax -9.50474 -2.94455 1.58571
lowerneck -11.2954 -4.52165 -2.07579
upperneck 25.2022 -7.07955 3.20146
head 10.0628 -3.22184 0.603495
rclavicle 6.02566e-014 1.4064e-014
rhumerus -0.236852 29.7044 -91.3778
rradius 134.021
rwrist 22.3889
rhand 48.1638 -57.5765
rfingers 7.12502
rthumb 68.7063 -57.0441
lclavicle 6.02566e-014 1.4064e-014
lhumerus -17.7332 -28.9415 102.949
lradius 136.86
lwrist -13.3303
lhand 60.0877 10.378
lfingers 7.12502
lthumb 74.6197 -22.346
rfemur -13.342 28.3768 17.0549
rtibia 8.84563
rfoot -9.0432 -6.48468
rtoes -9.43927
lfemur 12.5918 -41.4604 -24.9757
ltibia -4.83963
lfoot -67.9153 61.2992
ltoes 39.0527
550
root 0.400344 17.5812 8.59854 11.1414 -24.7533 -6.59833
lowerback -0.212647 -4.25681 3.38181
upperback -9.14955 -5.45866 2.92957
thorax -9.58527 -2.85735 1.6869
lowerneck -11.6664 -3.89086 -2.36747
upperneck 25.7309 -6.20476 3.49958
head 10.3195 -2.79197 0.855765
rclavicle 5.14604e-014 5.24792e-014
rhumerus -0.13342 30.5258 -91.2076
rradius 133.926
rwrist 22.4731
rhand 48.6712 -57.3562
rfingers 7.12502
rthumb 69.0587 -55.8787
lclavicle 5.14604e-014 5.24792e-014
lhumerus -17.7682 -28.2695 102.972
lradius 136.883
lwrist -13.3925
lhand 60.4301 9.96947
lfingers 7.12502
lthumb 74.6889 -23.9763
rfemur -12.4697 27.8589 17.4118
rtibia 8.45872
rfoot -9.13283 -8.03982
rtoes -9.28192
lfemur 12.4373 -42.3508 -24.561
ltibia -4.73762
lfoot -65.0509 61.6632
ltoes 37.7254
551
root 0.38234 17.5812 8.58465 10.8078 -22.4996 -6.5495
lowerback -0.292738 -4.00103 3.57871
upperback -9.24004 -5.09949 2.89366
thorax -9.66036 -2.69578 1.51062
lowerneck -11.1486 -3.42223 -2.11354
upperneck 25.5326 -5.53167 3.36237
head 10.1104 -2.47584 0.861576
rclavicle 8.94531e-014 3.85642e-014
rhumerus -0.383542 30.8113 -91.2171
rradius 133.929
rwrist 22.5282
rhand 49.2348 -57.1785
rfingers 7.12502
rthumb 69.443 -54.6124
lclavicle 8.94531e-014 3.85642e-014
lhumerus -18.1545 -28.1896 103.091
lradius 137.031
lwrist -13.3768
lhand 60.0752 9.72895
lfingers 7.12502
lthumb 74.617 -22.9505
rfemur -11.5143 27.4408 17.8418
rtibia 8.06067
rfoot -9.28705 -9.6702
rtoes -8.74809
lfemur 12.4093 -43.3454 -24.233
ltibia -4.66464
lfoot -62.2213 62.1206
ltoes 36.3157
552
root 0.363954 17.579 8.57235 10.4416 -20.283 -6.55357
lowerback -0.395615 -3.60942 3.99364
upperback -9.06638 -4.56519 2.66028
thorax -9.45705 -2.47105 0.970855
lowerneck -11.7641 -3.19971 -1.68425
upperneck 25.7809 -5.26863 3.27372
head 10.297 -2.30129 0.780359
rclavicle 1.11717e-013 -2.90226e-014
rhumerus -0.164497 30.608 -91.0451
rradius 133.996
rwrist 22.4712
rhand 49.3641 -57.0476
rfingers 7.12502
rthumb 69.5299 -54.2261
lclavicle 1.11717e-013 -2.90226e-014
lhumerus -17.9999 -28.745 102.941
lradius 137.134
lwrist -13.297
lhand 59.3838 9.70239
lfingers 7.12502
lthumb 74.4552 -20.5473
rfemur -10.5035 27.0552 18.3666
rtibia 7.66873
rfoot -9.45646 -11.2603
rtoes -7.69571
lfemur 12.4378 -44.1957 -23.8761
ltibia -4.67124
lfoot -58.7453 62.6983
ltoes 34.3636
553
root 0.343341 17.576 8.56117 10.063 -18.1793 -6.58292
lowerback -0.470806 -3.23867 4.37598
upperback -8.87006 -4.05941 2.46903
thorax -9.22879 -2.25362 0.498735
lowerneck -12.2255 -3.0109 -1.30537
upperneck 25.8034 -5.02221 3.13354
head 10.3736 -2.15049 0.691623
rclavicle -3.87382e-014 -1.06101e-014
rhumerus 0.0716014 30.4046 -90.9287
rradius 134.069
rwrist 22.2319
rhand 49.6383 -56.946
rfingers 7.12502
rthumb 69.7131 -53.575
lclavicle -3.87382e-014 -1.06101e-014
lhumerus -17.8303 -29.2073 102.853
lradius 137.243
lwrist -13.269
lhand 59.4038 9.62221
lfingers 7.12502
lthumb 74.4602 -20.697
rfemur -9.49258 26.7445 18.9343
rtibia 7.28316
rfoot -9.58089 -12.8354
rtoes -6.93541
lfemur 12.2739 -44.5458 -23.3106
ltibia -4.64542
lfoot -54.488 62.9222
ltoes 32.1523
